<?xml version="1.0" encoding="utf-8"?>
<svg viewBox="258.424 118.464 45 65" width="40pt" height="57.778pt" xmlns="http://www.w3.org/2000/svg">
  <g>
    <g transform="matrix(0.011139, 0, 0, -0.01354, 247.461746, 174.247147)" fill="#000000" stroke="none" style="">
      <path d="M 3838.426 2655 C 3787.55 2642 3706.148 2617 3658.047 2598 L 3570.17 2564 L 3567.395 2441 C 3566.47 2373 3568.32 2320 3572.02 2322 C 3575.721 2324 3614.571 2344 3658.047 2367 C 3757.024 2420 3853.226 2454 3952.203 2470 C 4101.131 2495 4210.283 2463 4297.235 2371 C 4415.637 2245 4420.262 2066 4312.035 1877 C 4253.759 1776 4165.882 1668 3880.977 1346 C 3745.924 1193 3617.346 1045 3595.146 1019 L 3555.37 970 L 3555.37 878 C 3555.37 827 3555.37 779 3556.295 773 C 3556.295 763 3669.147 760 4088.181 760 L 4620.066 760 L 4620.066 865 L 4620.066 970 L 4221.383 970 C 3980.879 970 3824.55 974 3826.4 979 C 3829.176 988 3978.103 1162 4170.507 1381 C 4394.362 1634 4446.163 1700 4506.289 1801 C 4591.391 1943 4622.841 2080 4602.491 2228 C 4573.815 2449 4435.987 2604 4219.533 2660 C 4111.306 2688 3961.453 2686 3838.426 2655 Z" style="fill: rgb(35, 46, 74);"/>
      <path d="M 1507.381 2565 C 1455.58 2546 1404.704 2481 1392.679 2421 C 1358.453 2247 1521.256 2114 1656.309 2206 C 1792.286 2298 1763.611 2523 1609.133 2569 C 1562.882 2583 1552.707 2582 1507.381 2565 Z" style="fill: rgb(35, 46, 74);"/>
      <path d="M 2165.994 2570 C 2020.766 2520 1991.165 2302 2117.893 2209 C 2237.22 2121 2390.773 2214 2390.773 2372 C 2390.773 2505 2274.221 2608 2165.994 2570 Z" style="fill: rgb(35, 46, 74);"/>
      <path d="M 2811.656 2568 C 2730.255 2537 2682.154 2456 2688.629 2360 C 2699.729 2189 2877.333 2115 2988.335 2235 C 3062.336 2315 3062.336 2433 2988.335 2515 C 2936.534 2573 2874.558 2592 2811.656 2568 Z" style="fill: rgb(35, 46, 74);"/>
      <path d="M 1498.131 1851 C 1320.527 1764 1372.328 1471 1565.657 1470 C 1761.761 1469 1812.637 1772 1630.408 1855 C 1585.082 1875 1543.456 1874 1498.131 1851 Z" style="fill: rgb(35, 46, 74);"/>
      <path d="M 2150.268 1854 C 1974.515 1772 2012.441 1489 2201.144 1472 C 2299.196 1463 2379.673 1535 2388.923 1640 C 2395.398 1711 2384.298 1756 2350.997 1797 C 2297.346 1863 2217.795 1886 2150.268 1854 Z" style="fill: rgb(35, 46, 74);"/>
      <path d="M 2793.156 1851 C 2725.63 1817 2686.779 1749 2686.779 1665 C 2686.779 1607 2704.354 1563 2743.205 1523 C 2782.056 1484 2814.432 1470 2868.083 1470 C 2931.909 1470 2990.185 1507 3017.936 1565 C 3070.662 1675 3031.811 1802 2931.909 1851 C 2884.733 1875 2840.332 1874 2793.156 1851 Z" style="fill: rgb(35, 46, 74);"/>
      <path d="M 1498.131 1147 C 1422.279 1109 1375.103 1009 1392.679 921 C 1429.679 733 1645.208 701 1725.685 871 C 1764.536 954 1740.485 1059 1668.334 1122 C 1627.633 1158 1544.381 1170 1498.131 1147 Z" style="fill: rgb(35, 46, 74);"/>
      <path d="M 2163.219 1153 C 2132.693 1147 2067.942 1082 2052.217 1041 C 2022.616 966 2039.266 870 2091.067 815 C 2165.069 739 2271.446 741 2341.747 821 C 2378.748 864 2390.773 898 2390.773 962 C 2390.773 1094 2288.096 1180 2163.219 1153 Z" style="fill: rgb(35, 46, 74);"/>
      <path d="M 2793.156 1142 C 2720.08 1105 2681.229 1028 2688.629 935 C 2693.254 876 2720.08 828 2771.881 788 C 2796.856 770 2814.432 765 2863.457 765 C 2914.333 765 2930.059 769 2961.509 793 C 3069.737 874 3068.812 1047 2958.734 1128 C 2911.558 1162 2844.032 1168 2793.156 1142 Z" style="fill: rgb(35, 46, 74);"/>
    </g>
  </g>
</svg>